<svg xmlns="http://www.w3.org/2000/svg" viewBox="0 0 425.33 276.72"><title>Asset 2</title><g id="Layer_2" data-name="Layer 2"><g id="Layer_3" data-name="Layer 3"><polygon points="240.15 47.62 292.03 137.5 318.49 91.66 293.06 47.62 266.63 1.8 265.58 0 212.67 0 213.72 1.8 240.15 47.62"/><path d="M398.88,230.91,358.7,161.27,424.31,47.62H371.4L319,138.37l-13.21,22.9L292,185.09,239.12,93.44,212.67,47.62,186.21,93.44,133.3,185.09l-26.45,45.82H79.37L158.73,93.44l26.46-45.82H26.46L0,93.44H105.8L26.46,230.91,0,276.72H133.3l26.46-45.81H265.58L292,276.72h52.91l-26.45-45.81,13.75-23.83L346,230.91l26.45,45.81h52.91ZM186.21,185.09l26.46-45.82,26.45,45.82Z"/></g></g></svg>